<svg width="32" height="32" viewBox="0 0 32 32" fill="none" xmlns="http://www.w3.org/2000/svg">
  <style>
    path { fill: #151718 }
    @media (prefers-color-scheme: dark) {
      path { fill: #fff }
    }
  </style>
  <path d="M17.9279 8.45838C18.1379 9.1045 18.9172 9.3577 19.4668 8.95838L25.6827 4.44222C26.1296 4.1176 26.7549 4.21665 27.0795 4.66346L30.4114 9.24937C30.736 9.69618 30.637 10.3215 30.1902 10.6462L23.9751 15.1617C23.4255 15.561 23.4255 16.3804 23.9751 16.7797L30.191 21.2959C30.6378 21.6205 30.7368 22.2459 30.4122 22.6927L27.0804 27.2786C26.7557 27.7254 26.1304 27.8244 25.6836 27.4998L19.4677 22.9837C18.9181 22.5844 18.1388 22.8376 17.9288 23.4837L15.5545 30.7911C15.3839 31.3163 14.8197 31.6038 14.2944 31.4331L8.90339 29.6815C8.37813 29.5108 8.09068 28.9466 8.26135 28.4214L10.6356 21.1143C10.8455 20.4682 10.3639 19.8053 9.68451 19.8053H2C1.44772 19.8053 1 19.3576 1 18.8053V13.1368C1 12.5845 1.44772 12.1368 2 12.1368L9.68362 12.1368C10.363 12.1368 10.8446 11.4739 10.6347 10.8278L8.26047 3.5207C8.0898 2.99545 8.37725 2.4313 8.9025 2.26063L14.2936 0.508968C14.8188 0.338303 15.383 0.625754 15.5536 1.15101L17.9279 8.45838Z" />
</svg>
